<?xml version="1.0"?>
<svg width="28.8" height="28.8" xmlns="http://www.w3.org/2000/svg" xmlns:svg="http://www.w3.org/2000/svg" transform="rotate(0)">
 <g class="layer">
  <title>Layer 1</title>
  <g id="SVGRepo_bgCarrier" stroke-width="0" transform="translate(6.4799999999999995,6.4799999999999995), scale(0.46)"/>
  <g id="SVGRepo_tracerCarrier" stroke="#CCCCCC" stroke-linecap="round" stroke-linejoin="round" stroke-width="0.77"/>
  <path d="m12,3l2.04,5.16c0.18,0.48 0.28,0.72 0.42,0.92c0.13,0.18 0.28,0.33 0.46,0.46c0.2,0.14 0.44,0.24 0.92,0.42l5.16,2.04l-5.16,2.04c-0.48,0.18 -0.72,0.28 -0.92,0.42c-0.18,0.13 -0.33,0.28 -0.46,0.46c-0.14,0.2 -0.24,0.44 -0.42,0.92l-2.04,5.16l-2.04,-5.16c-0.18,-0.48 -0.28,-0.72 -0.42,-0.92c-0.13,-0.18 -0.28,-0.33 -0.46,-0.46c-0.2,-0.14 -0.44,-0.24 -0.92,-0.42l-5.16,-2.04l5.16,-2.04c0.48,-0.18 0.72,-0.28 0.92,-0.42c0.18,-0.13 0.33,-0.28 0.46,-0.46c0.14,-0.2 0.24,-0.44 0.42,-0.92l2.04,-5.16z" id="svg_1" stroke="#f1eee4" stroke-linecap="round" stroke-linejoin="round" stroke-width="1.92"/>
  <polygon cx="11.15" cy="14.35" fill="#f1eee4" id="svg_15" orient="point" point="4" points="11.962499618530273,5.94221305847168 13.39917278289795,10.696365356445312 18.05778694152832,12.16250228881836 13.39917278289795,13.62863826751709 11.962499618530273,18.38279151916504 10.525826454162598,13.62863826751709 5.867212295532227,12.16250228881836 10.525826454162598,10.696365356445312 11.962499618530273,5.94221305847168 13.39917278289795,10.696365356445312 " r="38.41" r2="12.8" radialshift="0" shape="star" starRadiusMultiplier="3" stroke="#f1eee4" stroke-width="1.92"/>
 </g>

</svg>