<svg width="24" height="24" xmlns="http://www.w3.org/2000/svg" fill="none">

 <g>
  <title>Layer 1</title>
  <path id="svg_1" stroke-linejoin="round" stroke-linecap="round" stroke-width="2" stroke="#000000" d="m12,3l1.4302,5.31181c0.1745,0.64819 0.2618,0.97228 0.434,1.23724c0.1524,0.23444 0.3523,0.43431 0.5868,0.58675c0.2649,0.1722 0.589,0.2595 1.2372,0.434l5.3118,1.4302l-5.3118,1.4302c-0.6482,0.1745 -0.9723,0.2618 -1.2372,0.434c-0.2345,0.1524 -0.4344,0.3523 -0.5868,0.5868c-0.1722,0.2649 -0.2595,0.589 -0.434,1.2372l-1.4302,5.3118l-1.4302,-5.3118c-0.1745,-0.6482 -0.2618,-0.9723 -0.434,-1.2372c-0.15244,-0.2345 -0.35231,-0.4344 -0.58675,-0.5868c-0.26496,-0.1722 -0.58905,-0.2595 -1.23724,-0.434l-5.31181,-1.4302l5.31181,-1.4302c0.64819,-0.1745 0.97228,-0.2618 1.23724,-0.434c0.23444,-0.15244 0.43431,-0.35231 0.58675,-0.58675c0.1722,-0.26496 0.2595,-0.58905 0.434,-1.23724l1.4302,-5.31181z"/>
  <path stroke="#000000" id="svg_2" d="m9.32363,11.65191l5.49398,0m-5.49398,0l2.747,-4.59962l2.74698,4.59962l-2.74698,4.59961l-2.747,-4.59961z" stroke-width="2"/>
  <path id="svg_4" d="m9.33886,11.61414l2.74699,-2.10816l2.74699,2.10816l-2.74699,2.10816l-2.74699,-2.10816z" stroke-width="2" stroke="#000000"/>
  <path stroke="#000000" id="svg_5" d="m6.36185,11.49538l5.53526,-1.60034l5.53527,1.60034l-5.53527,1.60034l-5.53526,-1.60034z" stroke-width="2"/>
 </g>
</svg>